<svg xmlns="http://www.w3.org/2000/svg" width="202.81551mm" height="199.85167mm" viewBox="0 0 202.81551 199.85167"><defs><radialGradient id="a" cx="0" cy="0" r="1" fx="0" fy="0" gradientTransform="matrix(45.26454 0 0 -45.26454 229.124 629.615)" gradientUnits="userSpaceOnUse" spreadMethod="pad"><stop offset="0" style="stop-opacity:1;stop-color:#00837f"/><stop offset="0.119559" style="stop-opacity:1;stop-color:#00837f"/><stop offset="0.642359" style="stop-opacity:1;stop-color:#00aca7"/><stop offset="1" style="stop-opacity:1;stop-color:#00aca7"/></radialGradient></defs><path d="M0 0c-2.779-2.315-5.974-2.618-10.493-2.011a60.137 60.137 0 0 1 2.545 17.346c0 19.521-9.321 36.903-23.743 47.94 3.288 3.137 6.046 4.763 9.648 4.525 5.433-.493 9.527-4.826 12.148-12.88.463-1.422.88-2.973 1.244-4.611.36-2.393.746-4.658 1.151-6.724.862-4.43 1.666-7.101 1.93-7.91v-.005c.264-.81 1.184-3.444 3.093-7.534a163.752 163.752 0 0 1 3.02-6.115 49.247 49.247 0 0 0 1.706-4.458C4.87 9.509 4.106 3.593 0 0m-4.047-12.474c1.209-5.32-1.647-10.554-8.501-15.533a48.485 48.485 0 0 0-4-2.608 160.181 160.181 0 0 1-6.036-3.171c-3.946-2.192-6.238-3.782-6.926-4.279l-.006-.006c-.69-.501-2.909-2.189-6.21-5.266a165.672 165.672 0 0 1-4.88-4.767 48.341 48.341 0 0 0-3.715-2.998c-6.849-4.979-12.709-6.085-17.398-3.289-3.07 1.934-4.344 4.893-5.162 9.403 25.647.591 47.39 17.265 55.517 40.307 4.017-2.163 6.429-4.287 7.317-7.793m-64.245-30.95c-32.399 0-58.76 26.36-58.76 58.759s26.361 58.763 58.76 58.763c32.401 0 58.761-26.364 58.761-58.763s-26.36-58.759-58.761-58.759m-6.54-10.97c-4.689-2.797-10.549-1.695-17.401 3.282a49.573 49.573 0 0 0-3.718 2.999 158.136 158.136 0 0 1-4.882 4.762c-3.298 3.074-5.523 4.765-6.21 5.263l-.002.003c-.691.5-2.983 2.093-6.928 4.279a163.694 163.694 0 0 1-6.043 3.17 49.564 49.564 0 0 0-3.998 2.606c-6.854 4.973-9.714 10.209-8.506 15.53.888 3.507 3.297 5.632 7.312 7.797 8.135-23.038 29.882-39.706 55.534-40.285-.818-4.512-2.09-7.473-5.158-9.406M-136.575-.03c-4.111 3.593-4.872 9.508-2.257 17.564a50.016 50.016 0 0 0 1.704 4.459 159.328 159.328 0 0 1 3.021 6.117c1.906 4.088 2.824 6.723 3.088 7.532l.002.005c.263.811 1.066 3.485 1.928 7.914.401 2.063.787 4.329 1.15 6.721a49.312 49.312 0 0 0 1.24 4.612c2.613 8.053 6.705 12.392 12.142 12.888 3.6.238 6.358-1.386 9.647-4.521-14.411-11.037-23.723-28.413-23.723-47.926 0-6.036.896-11.867 2.553-17.371-4.519-.61-7.714-.308-10.495 2.006m32.624 75.521c2.148 5.017 7.538 7.572 16.007 7.575 1.492 0 3.097-.083 4.769-.246 2.386-.394 4.66-.727 6.75-.98 4.477-.55 7.266-.611 8.12-.611h.003c.853 0 3.64.061 8.118.615 2.09.255 4.363.587 6.75.982 1.672.163 3.276.246 4.771.246 8.467.001 13.859-2.549 16.006-7.567 1.34-3.347.649-6.474-1.313-10.568a60.006 60.006 0 0 1-34.322 10.741 60.002 60.002 0 0 1-34.339-10.754c-1.964 4.093-2.657 7.219-1.32 10.567M5.34 39.215v.008C2.676 47.001-.719 53.761-4.493 59.074a48.714 48.714 0 0 1-2.305 3.01c-5.938 7.724-16.262 12.035-24.108 4.671 4.574 9.738-2.718 18.221-11.899 21.478a48.232 48.232 0 0 1-3.575 1.263c-6.222 1.942-13.7 3.082-21.921 3.209h-.008c-8.22-.133-15.701-1.273-21.917-3.216a50.015 50.015 0 0 1-3.577-1.263c-9.184-3.262-16.47-11.748-11.892-21.486-7.849 7.363-18.169 3.048-24.105-4.68a48.639 48.639 0 0 1-2.307-3.01c-3.77-5.317-7.162-12.076-9.826-19.855l-.001-.008c-2.412-7.859-3.64-15.324-3.714-21.839-.018-1.304.02-2.571.098-3.793.265-9.74 6.081-19.292 16.76-17.948-9.426-5.189-8.515-16.336-3-24.372a50.22 50.22 0 0 1 2.149-3.123c3.89-5.226 9.274-10.545 15.849-15.479l.006-.003c6.73-4.729 13.448-8.2 19.625-10.285a52.22 52.22 0 0 1 3.635-1.076c9.345-2.759 20.226-.178 22.249 10.39 2.023-10.568 12.909-13.144 22.252-10.383a49.72 49.72 0 0 1 3.636 1.08c6.172 2.085 12.891 5.562 19.617 10.29l.007.004c6.574 4.939 11.953 10.258 15.842 15.486a48.996 48.996 0 0 1 2.15 3.126C.738-20.705 1.647-9.559-7.777-4.37 2.896-5.709 8.709 3.846 8.971 13.587a51.53 51.53 0 0 1 .098 3.791c-.075 6.515-1.307 13.979-3.729 21.837" style="fill:#00583e;fill-opacity:1;fill-rule:nonzero;stroke:none" transform="matrix(1.31082 0 0 -1.31082 190.924 121.52)"/><path d="m229.9 674.012-.796-22.164-.945 22.158a.856.856 0 0 1-.021.146 44.182 44.182 0 0 1-1.713-.064.803.803 0 0 1-.009-.156l.942-22.141-2.678 22a.784.784 0 0 1-.036.161 43.4 43.4 0 0 1-1.701-.214 1.2 1.2 0 0 1 .003-.158l2.68-22.003-4.398 21.724a.765.765 0 0 1-.046.152 44.711 44.711 0 0 1-1.683-.337c0-.053.005-.106.015-.159l4.394-21.709-6.082 21.297a1.056 1.056 0 0 1-.062.156 46.525 46.525 0 0 1-1.647-.469.803.803 0 0 1 .03-.167l6.088-21.317-7.743 20.772a.858.858 0 0 1-.071.146 40.934 40.934 0 0 1-1.603-.602.853.853 0 0 1 .04-.152l7.754-20.802-9.363 20.129a.97.97 0 0 1-.08.136 44.793 44.793 0 0 1-1.555-.721.835.835 0 0 1 .05-.151l9.343-20.086-10.89 19.292a.868.868 0 0 1-.092.13 46.76 46.76 0 0 1-1.488-.852c.018-.047.035-.093.061-.137l10.9-19.311-12.382 18.398a.726.726 0 0 1-.09.108 44.333 44.333 0 0 1-1.424-.961.858.858 0 0 1 .066-.123l12.388-18.406-13.793 17.378a.834.834 0 0 1-.097.1 48.002 48.002 0 0 1-1.347-1.063.942.942 0 0 1 .078-.123l13.786-17.369-15.107 16.234c-.032.035-.068.063-.103.092a46.542 46.542 0 0 1-1.254-1.178c.024-.035.047-.07.077-.103l15.114-16.24-16.341 15.004c-.031.029-.065.052-.1.076a43.845 43.845 0 0 1-1.164-1.269c.026-.03.051-.063.082-.091l16.334-14.999-17.459 13.67a.787.787 0 0 1-.109.068 42.85 42.85 0 0 1-1.063-1.35.642.642 0 0 1 .095-.093l17.441-13.657-18.458 12.246a.798.798 0 0 1-.112.059 45.699 45.699 0 0 1-.949-1.437c.031-.026.06-.055.095-.078l18.49-12.265-19.396 10.778c-.037.019-.073.032-.111.047-.288-.496-.57-.995-.839-1.503.033-.024.065-.051.103-.071l19.367-10.762-20.153 9.209a.755.755 0 0 1-.124.042 41.731 41.731 0 0 1-.71-1.568c.035-.023.07-.046.108-.063l20.132-9.199-20.793 7.591c-.038.014-.077.021-.115.029a44.577 44.577 0 0 1-.588-1.62c.034-.017.067-.037.104-.051l20.829-7.604-21.361 5.947a.642.642 0 0 1-.115.019c-.163-.549-.324-1.1-.467-1.657.038-.017.075-.035.115-.046l21.339-5.941-21.744 4.25c-.036.007-.072.007-.109.01a45.615 45.615 0 0 1-.321-1.695c.033-.01.063-.023.097-.03l21.744-4.25-22.011 2.531c-.031.003-.063 0-.094 0a46.211 46.211 0 0 1-.197-1.717c.03-.007.059-.017.091-.02l22.022-2.532-22.149.796c-.034.001-.065-.004-.098-.006a47.148 47.148 0 0 1-.047-1.728c.027-.004.052-.01.08-.011l22.148-.797-22.141-.944c-.026-.001-.05-.008-.074-.01.015-.58.037-1.156.074-1.731.013-.002.023-.004.036-.004h.037l22.144.944-22.002-2.677c-.026-.003-.05-.012-.076-.017.06-.579.137-1.152.219-1.723l.069.004 21.989 2.677-21.71-4.394c-.021-.003-.039-.012-.059-.018.105-.57.221-1.136.348-1.699.02.003.039.001.059.006l21.708 4.393-21.298-6.084c-.019-.005-.035-.014-.053-.02.151-.561.304-1.118.475-1.669.019.003.037.003.057.007l21.326 6.092-20.782-7.746c-.015-.004-.026-.013-.039-.018a42.59 42.59 0 0 1 .616-1.621c.01.004.02.002.031.006l20.782 7.745-20.108-9.353c-.008-.002-.015-.01-.023-.012.237-.53.48-1.057.737-1.575l.021.006 20.126 9.36-19.33-10.912c-.006-.002-.012-.009-.018-.011.278-.511.573-1.013.869-1.512l.006.002 19.292 10.89-18.373-12.366c.318-.488.647-.97.984-1.446l18.379 12.371-17.349-13.772c.355-.461.714-.919 1.086-1.366l17.347 13.77-16.209-15.084c.39-.432.792-.854 1.197-1.27l16.206 15.08-14.968-16.3c.422-.402.851-.796 1.288-1.18l14.959 16.29-13.635-17.415c.452-.367.907-.731 1.373-1.08l13.637 17.419-12.223-18.428c.479-.329.967-.649 1.458-.959l12.209 18.402-10.726-19.302c.503-.292 1.01-.578 1.526-.851l10.736 19.322-9.19-20.111a44.743 44.743 0 0 1 1.592-.721l9.189 20.111-7.581-20.762c.542-.21 1.091-.409 1.642-.597l7.578 20.75-5.926-21.282a45.37 45.37 0 0 1 1.68-.473l5.932 21.301-4.24-21.693a43.614 43.614 0 0 1 1.715-.326l4.239 21.689-2.524-21.951a44.777 44.777 0 0 1 1.733-.2l2.532 22.016-.796-22.148a45.882 45.882 0 0 1 1.746-.052l.793 22.047.938-22.036c.585.013 1.168.034 1.746.07l-.941 22.081 2.672-21.949c.581.06 1.156.139 1.73.221l-2.669 21.925 4.38-21.643a41.9 41.9 0 0 1 1.714.346l-4.373 21.606 6.055-21.202c.564.149 1.125.308 1.681.479l-6.07 21.251 7.715-20.701c.551.193 1.096.4 1.636.614l-7.704 20.669 9.302-20c.532.237 1.062.477 1.584.734l-9.314 20.026 10.857-19.234c.513.275 1.016.57 1.516.866l-10.845 19.213 12.317-18.299c.488.316.97.64 1.446.975l-12.32 18.307 13.72-17.287c.462.354.921.71 1.369 1.079l-13.741 17.313 15.054-16.176c.434.388.857.788 1.277 1.192l-15.006 16.124 16.224-14.898c.403.422.8.847 1.186 1.284l-16.257 14.926 17.385-13.611c.369.45.729.909 1.08 1.374l-17.391 13.614 18.406-12.208c.331.478.652.962.966 1.454l-18.375 12.189 19.281-10.713c.294.502.584 1.006.858 1.521l-19.326 10.739 20.119-9.193c.253.522.491 1.054.724 1.588l-20.124 9.195 20.786-7.588c.212.541.413 1.088.605 1.639l-20.749 7.576 21.288-5.927c.169.556.331 1.114.478 1.678l-21.31 5.933 21.706-4.241c.123.566.232 1.137.334 1.712l-21.723 4.247 21.995-2.528c.078.576.153 1.152.209 1.733l-21.988 2.529 22.121-.796c.033.579.048 1.161.059 1.746l-22.145.797 22.143.945a45.826 45.826 0 0 1-.062 1.743l-22.141-.945 22.008 2.681c-.058.58-.133 1.157-.212 1.731l-22.013-2.678 21.735 4.397.002.001a42.189 42.189 0 0 1-.337 1.714l-.009-.001-21.712-4.395 21.3 6.085.02.006a45.43 45.43 0 0 1-.478 1.68c-.007-.004-.013-.004-.021-.005l-21.276-6.078 20.732 7.727c.007.002.013.007.019.01-.19.55-.394 1.093-.607 1.633-.007-.003-.014-.003-.022-.005l-20.791-7.751 20.12 9.358a.298.298 0 0 1 .024.014 42.683 42.683 0 0 1-.727 1.582c-.01-.005-.022-.006-.033-.011l-20.101-9.349 19.305 10.896c.01.006.019.015.031.022a40.045 40.045 0 0 1-.859 1.512c-.009-.005-.02-.007-.031-.014l-19.327-10.908 18.41 12.391c.011.007.018.015.028.024-.313.486-.635.966-.966 1.441-.011-.007-.023-.011-.034-.018l-18.406-12.387 17.376 13.793c.013.009.022.023.034.032-.351.462-.706.918-1.074 1.365-.015-.011-.03-.018-.045-.029L246.04 644.12l16.23 15.104c.012.012.022.025.032.037-.384.434-.779.855-1.182 1.271-.012-.01-.026-.018-.038-.029l-16.22-15.094 14.982 16.317c.015.014.023.03.035.046-.417.401-.84.795-1.272 1.18-.015-.015-.033-.026-.049-.042l-14.993-16.329 13.668 17.456c.015.02.026.042.039.062-.446.367-.901.722-1.361 1.071-.018-.02-.038-.036-.055-.057l-13.67-17.459 12.259 18.48c.016.023.026.046.037.069a46.18 46.18 0 0 1-1.44.961c-.017-.023-.037-.043-.053-.066l-12.263-18.487L251.499 668c.017.029.027.059.039.088-.496.292-.994.577-1.503.85-.019-.03-.042-.056-.06-.088l-10.764-19.37 9.211 20.155c.017.036.026.074.037.111-.515.25-1.042.485-1.568.716a1.153 1.153 0 0 1-.062-.102l-9.203-20.143 7.595 20.802c.014.039.022.079.031.117-.534.21-1.072.408-1.614.596a.849.849 0 0 1-.056-.113l-7.601-20.818 5.944 21.35c.012.044.018.088.024.133-.548.166-1.097.326-1.653.47a.987.987 0 0 1-.054-.134l-5.949-21.364 4.255 21.765a.946.946 0 0 1 .013.139c-.558.121-1.121.228-1.687.327-.015-.043-.03-.085-.04-.131l-4.257-21.782 2.535 22.048a.833.833 0 0 1 .002.141c-.566.077-1.132.149-1.704.205-.012-.047-.025-.095-.031-.146l-2.529-21.994.795 22.123a.991.991 0 0 1-.01.153c-.568.031-1.141.045-1.714.054a.968.968 0 0 1-.021-.146" style="fill:url(#a);stroke:none" transform="matrix(1.31082 0 0 -1.31082 -198.936 926.885)"/><path d="M0 0a1.177 1.177 0 1 0-2.354 0A1.177 1.177 0 1 0 0 0" style="fill:#00583e;fill-opacity:1;fill-rule:nonzero;stroke:none" transform="matrix(1.31082 0 0 -1.31082 43.404 68.72)"/><path d="M0 0a1.176 1.176 0 1 1 2.354 0A1.176 1.176 0 1 1 0 0" style="fill:#00583e;fill-opacity:1;fill-rule:nonzero;stroke:none" transform="matrix(1.31082 0 0 -1.31082 159.41 68.72)"/><path d="m0 0-.471-.814-5.467 4.507a1.732 1.732 0 0 1-.446.267 1.083 1.083 0 0 1-.41.097l-.044.118.878.808.31-.325zm-5.004-1.31c.111.136.184.291.219.468.035.176.034.357 0 .542A1.664 1.664 0 0 1-5 .248a1.86 1.86 0 0 1-.421.483 1.978 1.978 0 0 1-.565.331 1.72 1.72 0 0 1-.586.111 1.378 1.378 0 0 1-.536-.1 1.04 1.04 0 0 1-.416-.305 1.032 1.032 0 0 1-.221-.467 1.41 1.41 0 0 1 .004-.545c.037-.189.112-.373.222-.555.109-.18.254-.345.432-.491.172-.143.358-.251.554-.322.196-.071.389-.107.578-.106.19.002.368.035.534.104.165.067.304.169.417.304m-3.145 2.592c.196.239.431.425.705.556.274.133.562.205.865.221.302.012.605-.03.91-.126.305-.099.586-.253.843-.465a2.52 2.52 0 0 0 .62-.743c.152-.278.249-.566.29-.863a2.238 2.238 0 0 0-.053-.888 2.1 2.1 0 0 0-.411-.799 2.1 2.1 0 0 0-.709-.56 2.299 2.299 0 0 0-.858-.218 2.55 2.55 0 0 0-1.749.588 2.514 2.514 0 0 0-.617.74c-.155.279-.254.57-.298.87a2.2 2.2 0 0 0 .048.885c.075.292.213.56.414.802" style="fill:#00583e;fill-opacity:1;fill-rule:nonzero;stroke:none" transform="matrix(1.31082 0 0 -1.31082 56.174 59.244)"/><path d="M0 0a1.145 1.145 0 0 1-.371-1.182 1.06 1.06 0 0 1 .21-.399.91.91 0 0 1 .327-.254 1.12 1.12 0 0 1 .822-.049c.14.044.269.114.386.211a1.214 1.214 0 0 1 .44.761c.02.142.014.28-.021.413a.949.949 0 0 1-.19.367c-.1.122-.215.218-.347.286-.131.07-.269.109-.415.119A1.194 1.194 0 0 1 0 0m-.174.986 1.005.826c.085.078.155.147.208.206.053.06.103.128.149.205h.071l.52-.633a.465.465 0 0 1-.083-.05c-.037-.026-.078-.055-.125-.085a4.046 4.046 0 0 1-.135-.093c-.044-.033-.08-.06-.108-.083l-.232-.191c.226-.026.442-.091.647-.192.205-.102.383-.245.533-.427.139-.17.239-.354.301-.554.063-.2.089-.403.079-.612a1.979 1.979 0 0 0-.132-.62 2.155 2.155 0 0 0-.332-.579l.457-.555.337.276c.394.324.705.621.934.891.229.271.364.477.404.621L1.726 2.5c-.112.136-.24.252-.386.349a1.063 1.063 0 0 1-.383.172l-.021.125 1.019.625.24-.379L3.8 1.437l.422.346c.079.066.155.138.228.217.072.079.132.156.178.234l.103-.01.519-.632a2.634 2.634 0 0 1-.255-.156 3.948 3.948 0 0 1-.258-.195L4.273.86l2.569-3.129-.619-.708-1.386 1.688c-.045-.108-.17-.286-.379-.535a6.403 6.403 0 0 0-.859-.824l-1.99-1.633c-.14-.116-.265-.223-.374-.32a5.935 5.935 0 0 1-.364-.358l-.668.57.044.118c.092.03.207.086.342.17.136.083.264.175.387.276l.948.779-.455.556a2.001 2.001 0 0 0-1.267-.228c-.21.031-.409.096-.595.194a1.564 1.564 0 0 0-.487.399 1.622 1.622 0 0 0-.316.607 1.96 1.96 0 0 0-.063.672l-.155-.127a7.794 7.794 0 0 1-.256-.239 2.416 2.416 0 0 1-.204-.232l-.668.57.044.117c.089.027.192.073.308.142.117.068.224.138.322.211l.97.797-.191.23a.852.852 0 0 1-.223.194c-.087.054-.18.097-.275.127l-.015.118.935.568.187-.271Z" style="fill:#00583e;fill-opacity:1;fill-rule:nonzero;stroke:none" transform="matrix(1.31082 0 0 -1.31082 56.05 48.454)"/><path d="M0 0a.997.997 0 0 1 .378.346c.096.147.159.311.19.493.03.182.028.375-.006.58a1.951 1.951 0 0 1-.21.604 2.007 2.007 0 0 1-.392.523 1.805 1.805 0 0 1-.483.335 1.261 1.261 0 0 1-.519.12 1.013 1.013 0 0 1-.497-.121 1.01 1.01 0 0 1-.377-.346 1.241 1.241 0 0 1-.188-.497 1.801 1.801 0 0 1 .01-.589 2 2 0 0 1 .216-.616c.106-.198.235-.368.386-.511.152-.142.311-.251.479-.327.168-.075.34-.114.516-.116A1.01 1.01 0 0 1 0 0m5.399-.55-.745-.574-1.518 2.84-.73-.39a4.468 4.468 0 0 1-.279-.164 2.494 2.494 0 0 1-.241-.175l-.395.49c.025-.227.018-.45-.021-.666a2.217 2.217 0 0 0-.201-.608 2.245 2.245 0 0 0-.367-.521 2.02 2.02 0 0 0-.52-.397A2.044 2.044 0 0 0-.482-.96a2.155 2.155 0 0 0-.865.132 2.452 2.452 0 0 0-.774.463 2.67 2.67 0 0 0-.596.759 2.63 2.63 0 0 0-.257 1.822c.068.291.191.555.369.796.178.239.407.433.685.582.273.145.558.226.856.241.298.015.588-.03.871-.133.282-.103.542-.26.781-.47a2.68 2.68 0 0 0 .595-.754c.129-.241.218-.486.267-.734.097.024.206.062.327.112.12.051.229.103.326.154l.682.365-.806 1.508-.73-.39a3.826 3.826 0 0 1-.279-.165 2.136 2.136 0 0 1-.241-.175l-.522.649.022.094c.094.016.21.053.348.11.139.056.261.113.367.171l.683.364-.313.586a1.735 1.735 0 0 1-.31.416 1.056 1.056 0 0 1-.343.245l.005.127 1.12.412.162-.418z" style="fill:#00583e;fill-opacity:1;fill-rule:nonzero;stroke:none" transform="matrix(1.31082 0 0 -1.31082 68.796 44.34)"/><path d="m0 0 1.209-4.005-.842-.418-2.05 6.784a1.706 1.706 0 0 1-.223.47 1.071 1.071 0 0 1-.288.308l.029.123 1.18.184.077-.441.692-2.291.523.158c.098.03.196.066.294.112.097.046.181.095.254.149l.09-.049L1.182.3A2.476 2.476 0 0 1 .887.254a4.419 4.419 0 0 1-.312-.08Zm-5.984.368a9.269 9.269 0 0 1-.329-.123A2.034 2.034 0 0 1-6.59.108l-.401.791.086.094a1.34 1.34 0 0 1 .339.012c.132.018.259.042.377.071l3.213.971c.109.039.199.076.271.11a1.3 1.3 0 0 1 .217.132l.056-.03.24-.792-.243-.045a2.817 2.817 0 0 1-.284-.068L-4.017.963l.093-.305c.103-.343.235-.651.393-.927.16-.274.357-.513.593-.718.236-.204.519-.375.849-.514.33-.138.715-.244 1.156-.32l-.371-.816c-.582.122-1.07.291-1.465.508-.395.216-.731.48-1.008.788a4.015 4.015 0 0 0-.39-1.286c-.208-.425-.525-.843-.951-1.258l-.761.474c.326.307.584.609.777.904.192.297.329.595.41.895.08.3.107.607.082.923-.026.315-.09.643-.194.986l-.118.392z" style="fill:#00583e;fill-opacity:1;fill-rule:nonzero;stroke:none" transform="matrix(1.31082 0 0 -1.31082 85.244 36.078)"/><path d="m0 0-.9-.244-.426 4.355-.805-.079.402-4.11-.899-.244-.252 2.571a1.658 1.658 0 0 0-.372-.168 2.732 2.732 0 0 0-.614-.12l-2.644-.259a.318.318 0 0 0-.207.053.267.267 0 0 0-.118.189l-.355 3.631c-.022.156-.05.29-.086.399a2.146 2.146 0 0 1-.153.355l.1.102c.088-.023.198-.037.333-.046a2.55 2.55 0 0 1 .401.008l1.866.182c.187.018.362.066.525.143l.05-.041.082-.842a3.362 3.362 0 0 1-.548-.008l-1.629-.159.308-3.15 1.956.19c.181.018.369.058.564.119.195.062.349.138.462.229l-.347 3.54a1.72 1.72 0 0 1-.126.504 1.07 1.07 0 0 1-.223.357l.053.114 1.184-.048-.011-.449.224-2.291.806.079-.19 1.947c-.017.174-.06.342-.128.503a1.055 1.055 0 0 1-.221.358l.052.115 1.184-.049-.011-.448z" style="fill:#00583e;fill-opacity:1;fill-rule:nonzero;stroke:none" transform="matrix(1.31082 0 0 -1.31082 99.665 39.569)"/><path d="m0 0-.185-1.883-.932-.001.389 3.985c.018.174.008.347-.026.518a1.095 1.095 0 0 1-.149.395l.074.102 1.161-.279-.098-.438L.072.743.616.689C.718.68.823.677.93.682c.108.005.204.017.291.039l.066-.079-.079-.815a3.54 3.54 0 0 1-.61.114zm-3.805 1.661a1.15 1.15 0 0 1-.466-.047 1.164 1.164 0 0 1-.77-1.468 1.18 1.18 0 0 1 .213-.391 1.172 1.172 0 0 1 .797-.412 1.202 1.202 0 0 1 .864.249c.119.096.216.209.29.342a1.187 1.187 0 0 1 .089.91c-.046.147-.119.28-.217.396a1.254 1.254 0 0 1-.352.286 1.164 1.164 0 0 1-.448.135m2.386-6.632.199 2.037-3.766.369a2.46 2.46 0 0 1-.324.008 4.39 4.39 0 0 1-.299-.02l-.069.884.115.052c.07-.038.165-.071.288-.101.121-.029.245-.055.371-.072l4.102-.402a3.375 3.375 0 0 1 .519-.013l.059-.062-.256-2.616zm-1.827 7.4 1.35-.132c.115-.005.212-.006.292-.001.079.004.163.017.25.039l.042-.05-.081-.814c-.041.009-.122.027-.241.051-.12.024-.216.039-.288.046l-.335.033c.153-.18.267-.381.342-.605.076-.224.102-.459.078-.707a1.701 1.701 0 0 0-.236-.726 1.943 1.943 0 0 0-.502-.559 2.021 2.021 0 0 0-.705-.337 2.29 2.29 0 0 0-.833-.065c-.29.028-.555.102-.796.224a1.975 1.975 0 0 0-.993 1.112 1.72 1.72 0 0 0-.091.758c.024.247.096.474.213.678.117.205.268.381.453.527l-.226.023c-.133.006-.25.01-.35.011a2.019 2.019 0 0 1-.308-.021l-.07.876.114.053c.082-.045.187-.084.318-.118.131-.035.256-.061.376-.079l1.295-.125.034.352a.897.897 0 0 1-.021.295c-.024.1-.059.194-.105.284l.073.094 1.063-.26-.059-.322z" style="fill:#00583e;fill-opacity:1;fill-rule:nonzero;stroke:none" transform="matrix(1.31082 0 0 -1.31082 111.519 33.922)"/><path d="M0 0c-.13.021-.224.032-.279.036l.105.881.123.029C.015.895.11.839.235.779.359.72.48.672.596.637L4.724-.61c.1-.024.208-.045.322-.064a1.39 1.39 0 0 1 .279-.022l.036-.068-.082-.241-.27-.831a47.847 47.847 0 0 0-.372-1.122 23.143 23.143 0 0 0-.344-.933c-.12-.312-.239-.602-.357-.871l-.984.108a30.661 30.661 0 0 1 .631 1.543c.111.293.213.596.309.91l.292.966L.369-.083A2.852 2.852 0 0 1 0 0m4.522-6.184-.244-.81a2.263 2.263 0 0 1-.285.124 5.973 5.973 0 0 1-.303.101l-5.573 1.683a4.054 4.054 0 0 1-.635.135l.103.872.123.029c.06-.05.149-.103.264-.16a3.09 3.09 0 0 1 .346-.147l.932-.282.531 1.759c.058.192.085.37.08.536a.84.84 0 0 1-.071.373l.092.087 1.082-.478-.147-.327L.146-4.91l.949-.286.548 1.811c.057.192.085.37.081.535a.855.855 0 0 1-.073.374l.093.086 1.082-.478-.147-.326-.686-2.274 1.898-.573a1.51 1.51 0 0 1 .332-.081c.095-.01.185-.012.269-.005z" style="fill:#00583e;fill-opacity:1;fill-rule:nonzero;stroke:none" transform="matrix(1.31082 0 0 -1.31082 118.543 33.357)"/><path d="M0 0a1.062 1.062 0 0 1-.458.126 1.248 1.248 0 0 1-.47-.068 1.367 1.367 0 0 1-.752-.656 1.294 1.294 0 0 1-.112-.962 1.146 1.146 0 0 1 .575-.718 1.206 1.206 0 0 1 1.378.135c.128.106.235.238.318.392.084.161.138.327.157.499.02.171.007.337-.035.493a1.29 1.29 0 0 1-.216.436C.284-.191.155-.082 0 0m.385.702A2.214 2.214 0 0 0 1.452-.564c.082-.26.112-.529.094-.808a1.962 1.962 0 0 0-.233-.804 1.947 1.947 0 0 0-.538-.64 2.177 2.177 0 0 0-.722-.368 2.105 2.105 0 0 0-.818-.064 2.276 2.276 0 0 0-.82.259 2.137 2.137 0 0 0-.656.53 2.115 2.115 0 0 0-.49 1.515c.018.279.095.547.233.803.136.257.316.471.538.642.222.17.463.294.724.371.261.077.532.102.814.075C-.141.921.129.84.385.702M.226-7.805l-.891.302 1.05 1.966c-.116 0-.334.051-.652.151a6.887 6.887 0 0 0-1.102.487l-2.327 1.242c-.16.086-.306.16-.437.223-.131.064-.289.13-.471.201l.271.835.125.004c.064-.075.16-.159.289-.252.129-.092.264-.176.402-.25l2.351-1.256c.45-.241.847-.416 1.192-.529.347-.112.593-.16.74-.141l1.906 3.57c.083.155.141.318.175.49.033.171.037.312.013.421l.108.067.966-.703-.259-.367z" style="fill:#00583e;fill-opacity:1;fill-rule:nonzero;stroke:none" transform="matrix(1.31082 0 0 -1.31082 133.583 38.552)"/><path d="m0 0 1.182-.971.738.901L.74.899Zm2.637-.66-.739-.9.907-.745a1.427 1.427 0 0 1 .522-.31l.006-.065-.538-.654a2.363 2.363 0 0 1-.215.226c-.08.073-.161.143-.24.209L-2.159.797c-.08.064-.168.131-.265.2a2.866 2.866 0 0 1-.269.167l.429.766.126-.02c.036-.069.097-.152.182-.251.085-.097.172-.185.263-.267l.977-.803.738.899-.506.416a.32.32 0 0 0-.108.184.27.27 0 0 0 .05.218l.987 1.202c.096.126.169.239.222.342.052.102.1.221.143.359l.142.001c.046-.077.114-.167.203-.268a2.61 2.61 0 0 1 .289-.278L4.102 1.48l.664.809-2.665 2.189a2.626 2.626 0 0 1-.308.218c-.112.07-.194.116-.244.141l.435.773.125-.019a2.4 2.4 0 0 1 .479-.535l2.938-2.414c.075-.062.154-.117.236-.165.082-.047.161-.083.237-.106l.006-.064L4.353.297l-3.177 2.61-.681-.83L3.419-.325c.07-.058.145-.111.226-.162.08-.05.16-.088.24-.115l.013-.057-.538-.653a4.019 4.019 0 0 1-.392.381Z" style="fill:#00583e;fill-opacity:1;fill-rule:nonzero;stroke:none" transform="matrix(1.31082 0 0 -1.31082 141.248 51.337)"/><path d="M0 0a1.656 1.656 0 0 1-.359.329 1.455 1.455 0 0 1-.392.19.866.866 0 0 1-.379.03.672.672 0 0 1-.53-.437.946.946 0 0 1-.043-.377c.011-.136.047-.277.111-.421a1.77 1.77 0 0 1 .258-.412c.104-.128.218-.232.344-.318.125-.086.254-.146.386-.183a.915.915 0 0 1 .378-.03.653.653 0 0 1 .53.437.852.852 0 0 1 .043.376A1.498 1.498 0 0 1 0 0m.604.497C.785.276.925.04 1.026-.216c.1-.256.157-.505.17-.75a1.676 1.676 0 0 0-.106-.693 1.313 1.313 0 0 0-.4-.554 1.284 1.284 0 0 0-.615-.282 1.693 1.693 0 0 0-.699.032c-.236.06-.47.164-.699.313a2.706 2.706 0 0 0-.615.554 2.78 2.78 0 0 0-.434.721 2.33 2.33 0 0 0-.179.754c-.016.247.018.478.099.695.081.216.213.399.396.549.182.151.389.246.619.286.229.04.465.029.705-.033.239-.062.476-.167.709-.317C.209.909.419.722.604.497m-2.089-7.022-.709.618.562.462-.712.864a3.34 3.34 0 0 1-.435.442l.533.641.098-.004a1.71 1.71 0 0 1 .175-.321c.082-.123.162-.232.24-.326l.676-.822 2.943 2.423c.135.112.252.24.348.386.095.146.153.274.173.385l.124.02.625-1.017-.378-.242zm.77 2.283c-.12.043-.311.159-.57.35-.259.191-.549.482-.868.87l-.324.393-.851-.7-.665.665.92.758-.648.787c-.116.14-.222.265-.319.373-.097.108-.217.23-.36.364l.569.67.119-.045c.03-.094.087-.207.17-.343.084-.135.177-.263.276-.385l1.602-1.945c.305-.37.586-.661.847-.871.259-.211.468-.341.628-.39zm-4.357 1.256c.135.113.25.234.343.365a.927.927 0 0 1 .167.361l.125.021.633-.998-.379-.242-.604-.498 2.453-2.976a1.54 1.54 0 0 1 .41-.357l-.005-.065-.654-.538c-.037.064-.084.14-.143.225a2.827 2.827 0 0 1-.169.226l-2.884 3.504a.319.319 0 0 0-.072.201.271.271 0 0 0 .09.205z" style="fill:#00583e;fill-opacity:1;fill-rule:nonzero;stroke:none" transform="matrix(1.31082 0 0 -1.31082 155.368 55.255)"/><path d="M0 0h7.432v-17.71c0-2.239.443-4.157 3.498-4.157 2.676 0 3.464 1.702 3.464 4.157V0h7.441v-14.362c0-7.28-3.375-10.459-10.905-10.459C3.901-24.821 0-22.144 0-14.332z" style="fill:#fff;fill-opacity:1;fill-rule:nonzero;stroke:none" transform="matrix(1.31082 0 0 -1.31082 104.823 68.134)"/><path d="M0 0v2.957h-21.088v-19.686c0-2.42 1.881-4.087 4.467-4.135H0v2.954h-13.652v8.232h13.33v2.954h-13.33V0Z" style="fill:#fff;fill-opacity:1;fill-rule:nonzero;stroke:none" transform="matrix(1.31082 0 0 -1.31082 97.014 72.01)"/><path d="M0 0c.054-7.93 4.076-10.659 11.275-10.659 7.764 0 10.81 3.511 11.167 8.973h-7.591v-1.729c0-2.53-.811-4.286-3.576-4.286-3.155 0-3.608 1.98-3.608 4.286v11.04c0 2.309.453 4.289 3.608 4.289 2.765 0 3.576-1.756 3.576-4.289V5.864h7.591c0 .948-.5 3.268-1.276 4.648-1.757 3.12-5.176 4.363-9.891 4.363C4.037 14.875.012 12.121 0 4.085Z" style="fill:#fff;fill-opacity:1;fill-rule:nonzero;stroke:none" transform="matrix(1.31082 0 0 -1.31082 111.044 125.271)"/><path d="M0 0c-.082.296-.219.509-.379.734C-.813 1.356-1.5 1.809-2.7 1.809h-4.542c-1.195 0-1.888-.451-2.32-1.074a3.303 3.303 0 0 1-.384-.742l-4.012-13.179L-17.814 0c-.1.26-.224.512-.381.738-.43.62-1.129 1.071-2.321 1.071h-4.542c-1.639 0-2.339-.844-2.706-1.816l-7.404-24.271 5.492-5.836c.121.201.212.414.272.629l6.545 21.528 3.862-13.183c.081-.298.216-.51.374-.738v.005c.431-.622 1.123-1.078 2.323-1.078h4.543c1.639 0 2.339.846 2.709 1.815l4.009 13.182 3.78-12.857c.289-.979.959-1.904 2.417-1.904h5.511z" style="fill:#fff;fill-opacity:1;fill-rule:nonzero;stroke:none" transform="matrix(1.31082 0 0 -1.31082 102.302 108.922)"/><path d="m0 0-2.04.704-.352-1.017a7.207 7.207 0 0 1-.101-.351 4.334 4.334 0 0 0-.096-.36l-.613.212c.023.066.072.18.148.342a7.548 7.548 0 0 1 .135.339l.352 1.017-2.389.825a5.34 5.34 0 0 1-.149-.433 32.51 32.51 0 0 1-.237-.795 4.66 4.66 0 0 1-.169-.738l-.586.202.963 2.792L.766.703l-.949-2.747-.586.203c.074.123.138.239.191.35.055.109.101.214.142.314l.214.534z" style="fill:#00583e;fill-opacity:1;fill-rule:nonzero;stroke:none" transform="matrix(1.31082 0 0 -1.31082 41.193 80.087)"/><path d="m0 0 5.266.435-.198-.968-.417-.018a30.124 30.124 0 0 1-.585-.033L2.119-.682.229-.855.212-.937a459.67 459.67 0 0 1 2.812-1.598 33.045 33.045 0 0 1 1.472-.797l-.132-.643c-.475-.046-1.115-.104-1.923-.176-.806-.072-1.787-.158-2.939-.258l-.016-.079c.156-.076.314-.157.474-.242.16-.084.326-.171.497-.263l3.341-1.748-.148-.722c-.172.111-.347.223-.524.33a9.955 9.955 0 0 1-.547.311L-2.1-4.254l.125.609a301.744 301.744 0 0 0 5.07.376l.013.064-4.482 2.503.127.618c.143.01.316.022.521.034.205.013.447.029.726.05" style="fill:#00583e;fill-opacity:1;fill-rule:nonzero;stroke:none" transform="matrix(1.31082 0 0 -1.31082 33.644 84.08)"/><path d="m0 0 2.551-.127-.046-.914-6.26.31.045.913L-.629.03l.081 1.009c.022.252.035.425.04.517.004.086.008.256.011.514.004.256.01.598.019 1.024l-3.081.152.045.912 6.261-.308-.046-.912-2.551.125C.118 2.638.09 2.297.069 2.042a16.351 16.351 0 0 1-.039-.513 17.8 17.8 0 0 1-.012-.517C.015.758.008.42 0 0" style="fill:#00583e;fill-opacity:1;fill-rule:nonzero;stroke:none" transform="matrix(1.31082 0 0 -1.31082 34.83 100.074)"/><path d="m0 0 2.043.889-2.154.611Zm3.724.729-6.239-2.944-.076 1.033 2.096.917-.141 1.906c-1.21.343-1.947.556-2.211.639l-.053.718 6.611-2.1Z" style="fill:#00583e;fill-opacity:1;fill-rule:nonzero;stroke:none" transform="matrix(1.31082 0 0 -1.31082 33.726 107.263)"/><path d="m0 0 4.494 2.78.263-.952-.363-.206a23.516 23.516 0 0 1-.506-.295L2.197.355.593-.659l.022-.078c1.342-.066 2.42-.115 3.231-.147a35.071 35.071 0 0 1 1.673-.042l.174-.632A944.38 944.38 0 0 0 1.56-4.153l.021-.078c.173.002.35.002.532.001.18-.004.368-.006.562-.009l3.771-.04.197-.71c-.206.021-.412.04-.618.055a9.273 9.273 0 0 1-.629.028l-5.334.162-.166.6c.498.312 1.107.686 1.827 1.123.718.437 1.558.942 2.519 1.515l-.017.064-5.13.193-.168.608.448.267C-.448-.27-.24-.145 0 0" style="fill:#00583e;fill-opacity:1;fill-rule:nonzero;stroke:none" transform="matrix(1.31082 0 0 -1.31082 33.194 116.887)"/><path d="M0 0c.311.141.6.31.866.505.267.196.48.429.641.697.356.578.398 1.164.128 1.757-.267.585-.716.94-1.347 1.068-.625.129-1.342.01-2.15-.358-.763-.348-1.278-.809-1.544-1.38A1.776 1.776 0 0 1-3.42.717c.284-.623.831-.979 1.642-1.067A3.74 3.74 0 0 1 0 0m-3.9.533c-.378.83-.413 1.62-.104 2.373.31.751.909 1.33 1.798 1.736.894.408 1.742.471 2.542.189.774-.28 1.342-.816 1.702-1.607.354-.776.424-1.53.211-2.261C2.003.127 1.415-.504.482-.928c-.927-.424-1.793-.498-2.596-.223-.802.268-1.397.83-1.786 1.684" style="fill:#00583e;fill-opacity:1;fill-rule:nonzero;stroke:none" transform="matrix(1.31082 0 0 -1.31082 41.343 131.737)"/><path d="m0 0 .207-.319a218.65 218.65 0 0 1-2.795-2.243c-.81-.661-1.511-1.242-2.101-1.741l-.547.841c.93.714 1.679 1.291 2.248 1.732.568.439.963.753 1.183.943-1.955-.216-3.5-.429-4.636-.64l-.133.204.637.935c.149.232.373.587.67 1.063.299.477.681 1.082 1.147 1.817a50.266 50.266 0 0 0-.841-.446l-1.063-.551a53.475 53.475 0 0 1-1.073-.576c-.305-.17-.558-.32-.759-.451l-.424.652a256.13 256.13 0 0 1 3.386 1.597c.944.456 1.714.842 2.31 1.16l.176-.273c-.6-.936-1.12-1.758-1.56-2.467A56.968 56.968 0 0 1-5.062-.578c.507.045 1.179.116 2.019.211C-2.204-.272-1.19-.149 0 0" style="fill:#00583e;fill-opacity:1;fill-rule:nonzero;stroke:none" transform="matrix(1.31082 0 0 -1.31082 49.924 138.21)"/><path d="m0 0 1.115 1.931-2.097-.789Zm2.561 2.801L-.706-3.275l-.675.786 1.14 1.983L-1.486.942a116.471 116.471 0 0 0-2.16-.799l-.469.545L2.45 2.93Z" style="fill:#00583e;fill-opacity:1;fill-rule:nonzero;stroke:none" transform="matrix(1.31082 0 0 -1.31082 50.374 146.269)"/><path d="m0 0-4.214-4.651-.283.255.351 5.896-.078.071-3.091-3.412-.45.406 4.214 4.652.348-.315-.265-5.669.072-.065L-.456.413z" style="fill:#00583e;fill-opacity:1;fill-rule:nonzero;stroke:none" transform="matrix(1.31082 0 0 -1.31082 61.32 150.394)"/><path d="m0 0 .065-.047C.013-.718.213-1.206.666-1.512c.271-.149.537-.185.801-.105.263.079.495.257.696.535.27.373.311.754.124 1.141-.112.213-.219.42-.321.62-.103.199-.198.394-.288.584-.183.502-.085 1.008.296 1.516.334.454.742.701 1.226.745.439.045.873-.086 1.301-.395.398-.287.632-.637.701-1.049l-.62-.473-.066.048c.121.482-.018.874-.418 1.177a.82.82 0 0 1-.665.158c-.233-.046-.44-.196-.622-.448-.261-.359-.305-.713-.134-1.057.189-.447.391-.879.605-1.291.217-.503.15-1.006-.199-1.508-.375-.521-.835-.821-1.379-.902-.546-.056-1.056.085-1.528.426a2.128 2.128 0 0 0-.506.531c-.169.255-.26.484-.274.686z" style="fill:#00583e;fill-opacity:1;fill-rule:nonzero;stroke:none" transform="matrix(1.31082 0 0 -1.31082 58.984 156.901)"/><path d="m0 0-1.564-3.149c-.36-.725-.497-1.287-.411-1.683.103-.46.383-.819.838-1.079.989-.485 1.814-.011 2.476 1.421l1.524 3.068.587-.291-1.623-3.27a3.776 3.776 0 0 0-.671-.977 2.342 2.342 0 0 0-.807-.553 2.008 2.008 0 0 0-.912-.135c-.319.025-.645.12-.979.285-.686.342-1.128.798-1.325 1.371-.175.535-.044 1.243.394 2.124L-.841.418z" style="fill:#00583e;fill-opacity:1;fill-rule:nonzero;stroke:none" transform="matrix(1.31082 0 0 -1.31082 71.603 157.212)"/><path d="m0 0-2.008-5.947-.36.122L-4.4-.28l-.1.034-1.473-4.362-.575.193 2.008 5.948.444-.151 2.02-5.304.092-.03L-.583.196z" style="fill:#00583e;fill-opacity:1;fill-rule:nonzero;stroke:none" transform="matrix(1.31082 0 0 -1.31082 84.192 162.347)"/><path d="m0 0 1.436 6.102.89-.209L.891-.209Z" style="fill:#00583e;fill-opacity:1;fill-rule:nonzero;stroke:none" transform="matrix(1.31082 0 0 -1.31082 84.43 170.838)"/><path d="m0 0 .753 1.453.745-.109C1.399 1.194 1.219.89.955.432.691-.025.338-.644-.103-1.421c-.459-.816-.826-1.481-1.103-1.992-.277-.511-.467-.88-.572-1.107l-.328.049c-.113.422-.246.951-.4 1.585-.156.636-.33 1.382-.526 2.241-.181.809-.325 1.44-.433 1.896-.108.455-.18.739-.218.854l1.017-.149c.022-.106.047-.236.074-.389.027-.152.06-.331.1-.537l.311-1.673.514-2.293.088-.012c.02.026.162.285.424.773C-.892-1.687-.507-.962 0 0" style="fill:#00583e;fill-opacity:1;fill-rule:nonzero;stroke:none" transform="matrix(1.31082 0 0 -1.31082 93.58 166.227)"/><path d="m0 0-.094-2.155 1.075-.048c.044-.002.097-.002.158-.002.062 0 .131.002.207.005.179.01.303.013.373.01l-.028-.647c-.07.004-.193.019-.371.044a5.69 5.69 0 0 1-.362.033l-1.076.047-.11-2.524c.092-.011.244-.018.457-.021.213-.003.49-.003.831 0 .247-.005.499.012.755.049l-.027-.62-2.952.129.272 6.234L2.01.408l-.027-.62a4.4 4.4 0 0 1-.731.131l-.573.052z" style="fill:#00583e;fill-opacity:1;fill-rule:nonzero;stroke:none" transform="matrix(1.31082 0 0 -1.31082 98.066 165.218)"/><path d="m0 0 .125-2.353c.259-.01.517.019.773.086.287.094.517.245.689.455.172.21.25.487.232.828-.031.592-.358.933-.978 1.02a2.127 2.127 0 0 1-.365.008A7.145 7.145 0 0 1 0 0m3.598-5.672-1.123-.059a26.671 26.671 0 0 1-.567.771L.855-3.62l-.709.846.163-3.072-.913-.049-.332 6.27 1.713.09C1.995.529 2.629.098 2.678-.831c.026-.497-.131-.909-.47-1.239a2.303 2.303 0 0 0-1.03-.587Z" style="fill:#00583e;fill-opacity:1;fill-rule:nonzero;stroke:none" transform="matrix(1.31082 0 0 -1.31082 103.67 165.166)"/><path d="m0 0 .08.013c.433-.516.918-.725 1.454-.625.298.082.513.242.646.484.133.241.174.531.124.869-.07.455-.307.756-.71.902L.93 1.86a17.32 17.32 0 0 0-.614.217c-.482.231-.766.66-.85 1.29-.079.558.039 1.022.354 1.391.282.34.684.549 1.207.628.485.074.896-.013 1.234-.258l-.113-.773-.08-.011c-.25.428-.624.611-1.122.549a.825.825 0 0 1-.585-.353C.227 4.344.183 4.091.23 3.783c.066-.438.281-.721.644-.848.448-.188.894-.353 1.335-.498.507-.208.811-.615.913-1.217C3.219.585 3.1.049 2.768-.39c-.35-.422-.813-.677-1.39-.764a2.094 2.094 0 0 0-.732.025c-.299.065-.524.162-.675.298Z" style="fill:#00583e;fill-opacity:1;fill-rule:nonzero;stroke:none" transform="matrix(1.31082 0 0 -1.31082 109.979 170.752)"/><path d="m0 0-1.379 6.116.892.201L.892.202Z" style="fill:#00583e;fill-opacity:1;fill-rule:nonzero;stroke:none" transform="matrix(1.31082 0 0 -1.31082 116.637 171.248)"/><path d="m0 0 1.689-5.502-.874-.269L-.874-.269c-.49-.15-1.026-.352-1.608-.607l-.191.62L1.405.996l.19-.62A12.867 12.867 0 0 1 0 0" style="fill:#00583e;fill-opacity:1;fill-rule:nonzero;stroke:none" transform="matrix(1.31082 0 0 -1.31082 120.854 162.348)"/><path d="m0 0 1.1-2.591-.82-.347L-.753-.504l-3.282 2.553 1.029.436c.277-.266.708-.639 1.293-1.121.291-.242.526-.432.705-.575.18-.142.312-.238.391-.289.044.104.147 1.147.307 3.13l.715.304a9.634 9.634 0 0 1-.177-1.073L.029 1.009A4.565 4.565 0 0 1 0 0" style="fill:#00583e;fill-opacity:1;fill-rule:nonzero;stroke:none" transform="matrix(1.31082 0 0 -1.31082 128.499 163.561)"/><path d="m0 0 .316.211a226.699 226.699 0 0 1 2.266-2.777c.668-.805 1.254-1.5 1.759-2.086l-.836-.555c-.722.924-1.306 1.669-1.75 2.233a35.47 35.47 0 0 1-.953 1.175c.231-1.952.457-3.496.677-4.63l-.203-.133-.94.628c-.232.147-.589.368-1.068.662-.48.293-1.088.67-1.827 1.131.134-.242.286-.521.453-.838l.56-1.058A50.3 50.3 0 0 1-.96-7.105c.171-.304.324-.556.456-.755l-.648-.429a240.214 240.214 0 0 1-1.626 3.372 71.45 71.45 0 0 1-1.177 2.3l.269.179c.942-.592 1.769-1.105 2.48-1.54A62.415 62.415 0 0 1 .62-5.057 95.144 95.144 0 0 1 .391-3.04 261.49 261.49 0 0 1 0 0" style="fill:#00583e;fill-opacity:1;fill-rule:nonzero;stroke:none" transform="matrix(1.31082 0 0 -1.31082 138.636 152.618)"/><path d="m0 0 1.398-1.643.82.697a6.011 6.011 0 0 1 .266.25c.123.129.212.217.266.261l.419-.492a4.133 4.133 0 0 0-.3-.221 4.038 4.038 0 0 1-.289-.223l-.821-.696 1.638-1.926c.074.055.19.154.349.298.157.142.36.33.608.564.185.166.358.348.521.55l.402-.473-2.25-1.914-4.045 4.752 2.213 1.883.403-.472A4.455 4.455 0 0 1 .973.793L.518.441Z" style="fill:#00583e;fill-opacity:1;fill-rule:nonzero;stroke:none" transform="matrix(1.31082 0 0 -1.31082 142.387 150.446)"/><path d="m0 0 3.696-3.475c.137.129.257.242.358.335.101.095.183.175.245.243.395.419.634.795.715 1.126.168.878-.167 1.712-1.006 2.501-.641.552-1.245.814-1.81.787-.566-.029-1.116-.324-1.653-.886A9.157 9.157 0 0 1 .333.394L0 0m3.515-4.56L-1.032-.284.244 1.071c.228.244.415.439.56.583.145.146.252.246.319.301.353.297.737.455 1.149.474.8.062 1.558-.242 2.274-.915.83-.782 1.249-1.654 1.257-2.616a2.313 2.313 0 0 0-.363-1.28c-.153-.25-.43-.588-.834-1.016Z" style="fill:#00583e;fill-opacity:1;fill-rule:nonzero;stroke:none" transform="matrix(1.31082 0 0 -1.31082 146.71 146.63)"/><path d="m0 0-4.945 3.852.562.721L.562.722Z" style="fill:#00583e;fill-opacity:1;fill-rule:nonzero;stroke:none" transform="matrix(1.31082 0 0 -1.31082 157.437 145.778)"/><path d="M0 0a2.94 2.94 0 0 0-.098-.935 3.192 3.192 0 0 0-.451-.947c-.472-.704-1.101-1.116-1.887-1.235-.785-.12-1.603.103-2.451.668a4.09 4.09 0 0 0-.977.873 2.855 2.855 0 0 0-.52 1.097A2.906 2.906 0 0 0-6.428.707c.068.399.225.79.472 1.17A4.088 4.088 0 0 0-4.59 3.2l.608-.646-.086-.149a1.112 1.112 0 0 1-.323-.036 2.683 2.683 0 0 1-.352-.113 1.716 1.716 0 0 1-.453-.309 2.21 2.21 0 0 1-.321-.385 1.498 1.498 0 0 1-.201-.449 2.029 2.029 0 0 1-.024-.911c.03-.147.07-.286.121-.416.126-.268.289-.516.491-.744.203-.229.475-.454.816-.677.694-.451 1.357-.651 1.991-.599.28.023.534.096.76.219.227.123.431.303.613.538.179.251.297.536.357.854.061.317.052.682-.024 1.092z" style="fill:#00583e;fill-opacity:1;fill-rule:nonzero;stroke:none" transform="matrix(1.31082 0 0 -1.31082 162.428 137.594)"/><path d="m0 0-2.212.274 1.544-1.623zm-3.577 1.267L3.292.628l-.46-.929L.56-.024l-.848-1.712c.867-.911 1.393-1.47 1.579-1.676l-.32-.646-4.624 5.172z" style="fill:#00583e;fill-opacity:1;fill-rule:nonzero;stroke:none" transform="matrix(1.31082 0 0 -1.31082 162.678 130.859)"/><path d="m0 0 5.384-2.009c.119.285.229.591.328.919.1.328.195.683.287 1.064l.581-.217-1.043-2.798L-.32-.856Z" style="fill:#00583e;fill-opacity:1;fill-rule:nonzero;stroke:none" transform="matrix(1.31082 0 0 -1.31082 160.494 123.991)"/><path d="M0 0c.131-.286.216-.588.252-.905a3.186 3.186 0 0 0-.069-1.048c-.181-.828-.614-1.443-1.301-1.843-.687-.4-1.528-.494-2.525-.28-.48.101-.89.253-1.23.451a2.868 2.868 0 0 0-.887.827 2.899 2.899 0 0 0-.476 1.089c-.086.396-.083.817.007 1.261.06.296.151.588.273.874.122.286.292.573.509.858l.804-.377-.024-.168a1.236 1.236 0 0 1-.289-.152 3.46 3.46 0 0 1-.286-.235 1.713 1.713 0 0 1-.307-.455 2.267 2.267 0 0 1-.157-.476 1.543 1.543 0 0 1-.021-.491 2.066 2.066 0 0 1 .313-.857 2.5 2.5 0 0 1 .266-.343 3.09 3.09 0 0 1 .731-.51 3.98 3.98 0 0 1 1.007-.328c.811-.164 1.502-.106 2.073.174.251.125.46.287.625.485.166.197.29.439.372.725.073.299.079.608.018.926-.061.319-.203.652-.425 1.007z" style="fill:#00583e;fill-opacity:1;fill-rule:nonzero;stroke:none" transform="matrix(1.31082 0 0 -1.31082 171.444 112.71)"/><path d="m0 0 2.148-.207.103 1.072a5.612 5.612 0 0 1 .018.364 4.75 4.75 0 0 0 .008.373l.645-.062a4.482 4.482 0 0 0-.063-.368 7.024 7.024 0 0 1-.052-.361L2.703-.261l2.515-.242c.015.09.03.242.044.455.014.212.029.489.044.828.018.248.015.5-.008.758l.618-.059-.285-2.941-6.211.6.279 2.892.617-.06a4.707 4.707 0 0 1-.169-.723L.065.677Z" style="fill:#00583e;fill-opacity:1;fill-rule:nonzero;stroke:none" transform="matrix(1.31082 0 0 -1.31082 164.951 108.167)"/><path d="m0 0 6.277.055.003-.38-4.571-3.738v-.107l4.604.041.006-.607-6.277-.055-.004.469L4.385-.674v.097L.005-.615z" style="fill:#00583e;fill-opacity:1;fill-rule:nonzero;stroke:none" transform="matrix(1.31082 0 0 -1.31082 164.603 97.33)"/><path d="m0 0 5.708.741.117-.907-5.707-.74c.066-.509.175-1.072.327-1.688l-.641-.084-.549 4.23.642.084C-.104 1.08-.069.535 0 0" style="fill:#00583e;fill-opacity:1;fill-rule:nonzero;stroke:none" transform="matrix(1.31082 0 0 -1.31082 164.723 92.461)"/><path d="m0 0 2.104.478-.238 1.049c-.01.042-.022.094-.039.154-.016.059-.037.125-.059.198-.057.17-.093.289-.109.356l.632.144c.016-.068.035-.191.057-.369l.031-.204c.012-.062.021-.114.031-.156L2.648.601l2.464.558c-.013.092-.047.24-.1.446-.053.207-.126.474-.219.802-.061.24-.143.48-.246.716l.606.138.653-2.882-6.086-1.38-.643 2.833.606.138a4.396 4.396 0 0 1 .066-.741L-.15.663Z" style="fill:#00583e;fill-opacity:1;fill-rule:nonzero;stroke:none" transform="matrix(1.31082 0 0 -1.31082 163.827 87.725)"/><path d="m0 0 2.234.746a2.582 2.582 0 0 1-.287.723 1.451 1.451 0 0 1-.623.543c-.249.11-.535.111-.859.004-.563-.189-.804-.593-.723-1.215.015-.103.046-.221.09-.354C-.124.314-.068.165 0 0m4.511 4.978.356-1.068a13.61 13.61 0 0 1-.255-.315c-.098-.124-.21-.27-.338-.437L3.262 1.787 2.636.879l2.917.974.29-.868-5.954-1.986L-.655.626c-.386 1.157-.138 1.882.743 2.177.473.157.912.116 1.322-.123.344-.199.623-.478.838-.837Z" style="fill:#00583e;fill-opacity:1;fill-rule:nonzero;stroke:none" transform="matrix(1.31082 0 0 -1.31082 162.295 82.325)"/></svg>